<?xml version="1.0" encoding="utf-8"?>
<!-- Generator: Adobe Illustrator 18.1.1, SVG Export Plug-In . SVG Version: 6.00 Build 0)  -->
<!DOCTYPE svg PUBLIC "-//W3C//DTD SVG 1.1//EN" "http://www.w3.org/Graphics/SVG/1.1/DTD/svg11.dtd">
<svg version="1.1" xmlns="http://www.w3.org/2000/svg" xmlns:xlink="http://www.w3.org/1999/xlink" x="0px" y="0px"
	 viewBox="0 0 1024 940" enable-background="new 0 0 1024 940" xml:space="preserve">
<g id="Layer_1" display="none">
	<g display="inline">
		<path fill="#A90D15" d="M347.3,485l-243.6-76.9l8.8,257l73.3-57.2c0,0,60.3,69.9,126.7,132.9c68.2,64.9,142.7,123,142.7,123
			l137.8-31c0,0-99.3-77.1-185-155.3c-72.6-66.2-134-135.4-134-135.4L347.3,485z"/>
		
			<animate  fill="remove" restart="always" additive="replace" dur="3s" accumulate="none" values="0;1;0" repeatCount="indefinite" attributeName="opacity" calcMode="linear">
			</animate>
	</g>
</g>
<g id="Layer_3" display="none">
	<path display="inline" fill="#A90D15" d="M611.1,590.6l80.7,74.4c0,0,113-120.5,113-223.5c0-120.5-115.4-156-115.4-156l58.3-153.2
		c0,0,211.1,58.3,217.3,239.7C972.4,537,777.4,737,777.4,737l79,75.8l-245.3,34.8L611.1,590.6L611.1,590.6z"/>
</g>
<g id="Layer_2">
	<path fill="#A90D15" d="M598.8,261.1l53.4,75.8l89.5-235.9l-244.8-6.2l47.2,77.1l-14.9,7.5c0,0-151.5-134-300.4-64.5
		C87.3,169.3,87.3,375.4,87.3,375.4l154,47.2c0,0-6.2-125.4,88.2-170.1c92.5-38.5,197.4,50.2,197.4,50.2L598.8,261.1z"/>
</g>
</svg>
